# xmcd CD database file
#
# Track frame offsets:
#	150
#	40909
#	87314
#	121695
#	192684
#	217390
#	269616
#
# Disc length: 3667 seconds
#
# Revision: 0
# Processed by: cddbd v1.5.1PL2 Copyright (c) Steve Scherf et al.
# Submitted via: CDex 1.51
#
DISCID=6d0e5107
DTITLE=Anibal Maidana-Cuarteto Enjazztre - En Vivo
DYEAR=2005
DGENRE=Jazz
TTITLE0=Cual  Quiera
TTITLE1=Mayor  Mente
TTITLE2=No, se
TTITLE3=Para Joshua
TTITLE4=Adiós julián
TTITLE5=KDT
TTITLE6=Cortito
EXTD=YEAR: 2005
EXTT0=
EXTT1=
EXTT2=
EXTT3=
EXTT4=
EXTT5=
EXTT6=
PLAYORDER=
